<svg width="314" height="81" viewBox="0 0 314 81" fill="none" xmlns="http://www.w3.org/2000/svg">
<path d="M58.3752 34V19.3H66.9642C67.8322 19.3 68.6232 19.503 69.3372 19.909C70.0652 20.301 70.6462 20.84 71.0802 21.526C71.5142 22.212 71.7312 22.975 71.7312 23.815C71.7312 24.697 71.4932 25.502 71.0172 26.23C70.5412 26.944 69.9112 27.518 69.1272 27.952C68.3432 28.372 67.4822 28.582 66.5442 28.582H60.6432V34H58.3752ZM69.7572 34L64.7592 27.364L67.1742 26.839L72.5922 34.021L69.7572 34ZM60.6432 26.398H66.3342C66.8662 26.398 67.3562 26.279 67.8042 26.041C68.2662 25.803 68.6302 25.488 68.8962 25.096C69.1762 24.704 69.3162 24.277 69.3162 23.815C69.3162 23.381 69.1762 22.989 68.8962 22.639C68.6302 22.289 68.2662 22.009 67.8042 21.799C67.3562 21.589 66.8662 21.484 66.3342 21.484H60.6432V26.398ZM83.8889 34V27.427L84.3089 29.044L76.4129 19.3H79.5629L85.2959 26.713H84.8129L90.3989 19.3H93.2129L86.0519 28.477L86.1569 27.259V34H83.8889ZM98.7141 34V19.3H107.303C108.171 19.3 108.962 19.503 109.676 19.909C110.404 20.301 110.985 20.84 111.419 21.526C111.853 22.212 112.07 22.975 112.07 23.815C112.07 24.697 111.832 25.502 111.356 26.23C110.88 26.944 110.25 27.518 109.466 27.952C108.682 28.372 107.821 28.582 106.883 28.582H100.982V34H98.7141ZM110.096 34L105.098 27.364L107.513 26.839L112.931 34.021L110.096 34ZM100.982 26.398H106.673C107.205 26.398 107.695 26.279 108.143 26.041C108.605 25.803 108.969 25.488 109.235 25.096C109.515 24.704 109.655 24.277 109.655 23.815C109.655 23.381 109.515 22.989 109.235 22.639C108.969 22.289 108.605 22.009 108.143 21.799C107.695 21.589 107.205 21.484 106.673 21.484H100.982V26.398ZM127.484 34.21C126.182 34.21 124.992 34.021 123.914 33.643C122.836 33.251 121.898 32.712 121.1 32.026C120.302 31.326 119.686 30.521 119.252 29.611C118.818 28.687 118.601 27.7 118.601 26.65C118.601 25.6 118.818 24.62 119.252 23.71C119.686 22.786 120.302 21.981 121.1 21.295C121.898 20.595 122.836 20.056 123.914 19.678C124.992 19.286 126.182 19.09 127.484 19.09C128.772 19.09 129.955 19.286 131.033 19.678C132.111 20.056 133.049 20.595 133.847 21.295C134.645 21.981 135.261 22.786 135.695 23.71C136.143 24.62 136.367 25.6 136.367 26.65C136.367 27.7 136.143 28.687 135.695 29.611C135.261 30.521 134.645 31.326 133.847 32.026C133.049 32.712 132.111 33.251 131.033 33.643C129.955 34.021 128.772 34.21 127.484 34.21ZM127.484 32.005C128.45 32.005 129.332 31.872 130.13 31.606C130.928 31.326 131.621 30.948 132.209 30.472C132.797 29.982 133.252 29.415 133.574 28.771C133.896 28.113 134.057 27.406 134.057 26.65C134.057 25.894 133.896 25.194 133.574 24.55C133.252 23.892 132.797 23.325 132.209 22.849C131.621 22.359 130.928 21.981 130.13 21.715C129.332 21.435 128.45 21.295 127.484 21.295C126.518 21.295 125.629 21.435 124.817 21.715C124.019 21.981 123.326 22.359 122.738 22.849C122.15 23.325 121.695 23.892 121.373 24.55C121.065 25.194 120.911 25.894 120.911 26.65C120.911 27.406 121.065 28.113 121.373 28.771C121.695 29.415 122.15 29.982 122.738 30.472C123.326 30.948 124.019 31.326 124.817 31.606C125.629 31.872 126.518 32.005 127.484 32.005ZM149.083 34.21C148.033 34.21 147.06 34.105 146.164 33.895C145.282 33.685 144.47 33.37 143.728 32.95C143 32.53 142.335 31.998 141.733 31.354L143.161 29.464C144.071 30.402 144.995 31.088 145.933 31.522C146.885 31.956 147.942 32.173 149.104 32.173C149.832 32.173 150.532 32.089 151.204 31.921C151.876 31.739 152.429 31.473 152.863 31.123C153.297 30.759 153.514 30.304 153.514 29.758C153.514 29.408 153.395 29.121 153.157 28.897C152.919 28.673 152.604 28.491 152.212 28.351C151.834 28.211 151.421 28.099 150.973 28.015C150.525 27.931 150.091 27.868 149.671 27.826C149.265 27.784 148.922 27.749 148.642 27.721C147.704 27.595 146.85 27.427 146.08 27.217C145.324 26.993 144.673 26.713 144.127 26.377C143.595 26.041 143.182 25.628 142.888 25.138C142.608 24.648 142.468 24.081 142.468 23.437C142.468 22.751 142.629 22.142 142.951 21.61C143.287 21.064 143.749 20.609 144.337 20.245C144.939 19.867 145.632 19.58 146.416 19.384C147.214 19.188 148.075 19.09 148.999 19.09C149.979 19.09 150.875 19.188 151.687 19.384C152.499 19.58 153.22 19.874 153.85 20.266C154.494 20.644 155.026 21.113 155.446 21.673L153.934 23.332C153.542 22.856 153.087 22.457 152.569 22.135C152.051 21.799 151.484 21.547 150.868 21.379C150.266 21.211 149.622 21.127 148.936 21.127C148.18 21.127 147.501 21.211 146.899 21.379C146.297 21.547 145.821 21.785 145.471 22.093C145.121 22.387 144.946 22.751 144.946 23.185C144.946 23.563 145.051 23.885 145.261 24.151C145.485 24.417 145.793 24.641 146.185 24.823C146.577 24.991 147.046 25.131 147.592 25.243C148.152 25.355 148.768 25.453 149.44 25.537C150.28 25.635 151.092 25.761 151.876 25.915C152.66 26.069 153.36 26.286 153.976 26.566C154.592 26.832 155.082 27.196 155.446 27.658C155.81 28.12 155.992 28.722 155.992 29.464C155.992 30.416 155.705 31.249 155.131 31.963C154.557 32.677 153.752 33.23 152.716 33.622C151.694 34.014 150.483 34.21 149.083 34.21ZM167.52 34V27.427L167.94 29.044L160.044 19.3H163.194L168.927 26.713H168.444L174.03 19.3H176.844L169.683 28.477L169.788 27.259V34H167.52ZM188.028 34.21C186.978 34.21 186.005 34.105 185.109 33.895C184.227 33.685 183.415 33.37 182.673 32.95C181.945 32.53 181.28 31.998 180.678 31.354L182.106 29.464C183.016 30.402 183.94 31.088 184.878 31.522C185.83 31.956 186.887 32.173 188.049 32.173C188.777 32.173 189.477 32.089 190.149 31.921C190.821 31.739 191.374 31.473 191.808 31.123C192.242 30.759 192.459 30.304 192.459 29.758C192.459 29.408 192.34 29.121 192.102 28.897C191.864 28.673 191.549 28.491 191.157 28.351C190.779 28.211 190.366 28.099 189.918 28.015C189.47 27.931 189.036 27.868 188.616 27.826C188.21 27.784 187.867 27.749 187.587 27.721C186.649 27.595 185.795 27.427 185.025 27.217C184.269 26.993 183.618 26.713 183.072 26.377C182.54 26.041 182.127 25.628 181.833 25.138C181.553 24.648 181.413 24.081 181.413 23.437C181.413 22.751 181.574 22.142 181.896 21.61C182.232 21.064 182.694 20.609 183.282 20.245C183.884 19.867 184.577 19.58 185.361 19.384C186.159 19.188 187.02 19.09 187.944 19.09C188.924 19.09 189.82 19.188 190.632 19.384C191.444 19.58 192.165 19.874 192.795 20.266C193.439 20.644 193.971 21.113 194.391 21.673L192.879 23.332C192.487 22.856 192.032 22.457 191.514 22.135C190.996 21.799 190.429 21.547 189.813 21.379C189.211 21.211 188.567 21.127 187.881 21.127C187.125 21.127 186.446 21.211 185.844 21.379C185.242 21.547 184.766 21.785 184.416 22.093C184.066 22.387 183.891 22.751 183.891 23.185C183.891 23.563 183.996 23.885 184.206 24.151C184.43 24.417 184.738 24.641 185.13 24.823C185.522 24.991 185.991 25.131 186.537 25.243C187.097 25.355 187.713 25.453 188.385 25.537C189.225 25.635 190.037 25.761 190.821 25.915C191.605 26.069 192.305 26.286 192.921 26.566C193.537 26.832 194.027 27.196 194.391 27.658C194.755 28.12 194.937 28.722 194.937 29.464C194.937 30.416 194.65 31.249 194.076 31.963C193.502 32.677 192.697 33.23 191.661 33.622C190.639 34.014 189.428 34.21 188.028 34.21ZM205.302 34V21.484H199.716V19.3H213.282V21.484H207.57V34H205.302ZM219.197 34V19.3H231.398V21.484H221.465V31.816H231.398V34H219.197ZM220.436 27.553V25.369H230.243V27.553H220.436ZM238.577 34V19.3H240.803L247.502 27.595H246.704L253.403 19.3H255.629V34H253.361V27.763C253.361 26.601 253.389 25.509 253.445 24.487C253.501 23.465 253.613 22.422 253.781 21.358L254.012 22.219L247.796 29.779H246.41L240.194 22.219L240.425 21.358C240.593 22.422 240.705 23.465 240.761 24.487C240.817 25.509 240.845 26.601 240.845 27.763V34H238.577Z" fill="white"/>
<path d="M71.4951 63V57.75H72.5351V59.27L72.1451 59.19C72.2051 59.0433 72.3118 58.8833 72.4651 58.71C72.6185 58.53 72.8151 58.3633 73.0551 58.21C73.3018 58.05 73.5851 57.92 73.9051 57.82C74.2251 57.7133 74.5785 57.66 74.9651 57.66C75.3318 57.66 75.6685 57.72 75.9751 57.84C76.2818 57.96 76.5318 58.1433 76.7251 58.39C76.9185 58.63 77.0285 58.9367 77.0551 59.31L76.6951 59.23L76.7651 59.06C76.8518 58.94 76.9785 58.8 77.1451 58.64C77.3118 58.48 77.5118 58.3267 77.7451 58.18C77.9851 58.0333 78.2485 57.91 78.5351 57.81C78.8285 57.71 79.1385 57.66 79.4651 57.66C80.0451 57.66 80.4985 57.7633 80.8251 57.97C81.1585 58.1767 81.3951 58.4533 81.5351 58.8C81.6751 59.1467 81.7451 59.53 81.7451 59.95V63H80.7051V60.11C80.7051 59.8167 80.6585 59.5567 80.5651 59.33C80.4718 59.1033 80.3218 58.9267 80.1151 58.8C79.9085 58.6733 79.6385 58.61 79.3051 58.61C78.9985 58.61 78.7118 58.66 78.4451 58.76C78.1851 58.8533 77.9551 58.9867 77.7551 59.16C77.5551 59.3267 77.3985 59.5233 77.2851 59.75C77.1785 59.97 77.1251 60.2067 77.1251 60.46V63H76.0851V60.09C76.0851 59.7967 76.0285 59.54 75.9151 59.32C75.8085 59.1 75.6351 58.9267 75.3951 58.8C75.1551 58.6733 74.8418 58.61 74.4551 58.61C74.1751 58.61 73.9185 58.6633 73.6851 58.77C73.4518 58.87 73.2485 59.0033 73.0751 59.17C72.9018 59.3367 72.7685 59.5167 72.6751 59.71C72.5818 59.8967 72.5351 60.0733 72.5351 60.24V63H71.4951ZM88.0632 63.1C87.4298 63.1 86.8765 62.9833 86.4032 62.75C85.9365 62.5167 85.5765 62.1933 85.3232 61.78C85.0698 61.3667 84.9432 60.8967 84.9432 60.37C84.9432 59.8367 85.0765 59.3667 85.3432 58.96C85.6165 58.5467 85.9932 58.2233 86.4732 57.99C86.9532 57.7567 87.5032 57.64 88.1232 57.64C88.5098 57.64 88.8698 57.6867 89.2032 57.78C89.5365 57.8667 89.8265 57.9833 90.0732 58.13C90.3198 58.2767 90.5098 58.4333 90.6432 58.6C90.7832 58.7667 90.8532 58.93 90.8532 59.09L90.5532 59.11V57.75H91.5832V63H90.5532V61.55L90.7532 61.63C90.7532 61.7833 90.6798 61.9467 90.5332 62.12C90.3865 62.2867 90.1865 62.4467 89.9332 62.6C89.6865 62.7467 89.3998 62.8667 89.0732 62.96C88.7532 63.0533 88.4165 63.1 88.0632 63.1ZM88.2932 62.15C88.7465 62.15 89.1465 62.0733 89.4932 61.92C89.8398 61.76 90.1098 61.5467 90.3032 61.28C90.4965 61.0067 90.5932 60.7033 90.5932 60.37C90.5932 60.0367 90.4965 59.7367 90.3032 59.47C90.1098 59.2033 89.8398 58.9933 89.4932 58.84C89.1465 58.68 88.7465 58.6 88.2932 58.6C87.8465 58.6 87.4498 58.68 87.1032 58.84C86.7565 58.9933 86.4832 59.2033 86.2832 59.47C86.0898 59.7367 85.9932 60.0367 85.9932 60.37C85.9932 60.7033 86.0898 61.0067 86.2832 61.28C86.4832 61.5467 86.7565 61.76 87.1032 61.92C87.4498 62.0733 87.8465 62.15 88.2932 62.15ZM100.497 63L98.1669 60.67L97.9669 60.46L95.2869 57.75H96.8369L98.8469 59.98L99.0269 60.16L102.007 63H100.497ZM95.0969 63L97.7669 60.2L98.4769 60.82L96.5569 63H95.0969ZM99.0869 60.52L98.4669 59.8L100.457 57.75H101.927L99.0869 60.52ZM105.699 63V57.75H106.729V63H105.699ZM106.199 56.49C105.979 56.49 105.809 56.4333 105.689 56.32C105.569 56.2067 105.509 56.0467 105.509 55.84C105.509 55.6467 105.569 55.49 105.689 55.37C105.815 55.25 105.985 55.19 106.199 55.19C106.419 55.19 106.589 55.2467 106.709 55.36C106.829 55.4733 106.889 55.6333 106.889 55.84C106.889 56.0333 106.825 56.19 106.699 56.31C106.579 56.43 106.412 56.49 106.199 56.49ZM110.89 63V57.75H111.93V59.27L111.54 59.19C111.6 59.0433 111.706 58.8833 111.86 58.71C112.013 58.53 112.21 58.3633 112.45 58.21C112.696 58.05 112.98 57.92 113.3 57.82C113.62 57.7133 113.973 57.66 114.36 57.66C114.726 57.66 115.063 57.72 115.37 57.84C115.676 57.96 115.926 58.1433 116.12 58.39C116.313 58.63 116.423 58.9367 116.45 59.31L116.09 59.23L116.16 59.06C116.246 58.94 116.373 58.8 116.54 58.64C116.706 58.48 116.906 58.3267 117.14 58.18C117.38 58.0333 117.643 57.91 117.93 57.81C118.223 57.71 118.533 57.66 118.86 57.66C119.44 57.66 119.893 57.7633 120.22 57.97C120.553 58.1767 120.79 58.4533 120.93 58.8C121.07 59.1467 121.14 59.53 121.14 59.95V63H120.1V60.11C120.1 59.8167 120.053 59.5567 119.96 59.33C119.866 59.1033 119.716 58.9267 119.51 58.8C119.303 58.6733 119.033 58.61 118.7 58.61C118.393 58.61 118.106 58.66 117.84 58.76C117.58 58.8533 117.35 58.9867 117.15 59.16C116.95 59.3267 116.793 59.5233 116.68 59.75C116.573 59.97 116.52 60.2067 116.52 60.46V63H115.48V60.09C115.48 59.7967 115.423 59.54 115.31 59.32C115.203 59.1 115.03 58.9267 114.79 58.8C114.55 58.6733 114.236 58.61 113.85 58.61C113.57 58.61 113.313 58.6633 113.08 58.77C112.846 58.87 112.643 59.0033 112.47 59.17C112.296 59.3367 112.163 59.5167 112.07 59.71C111.976 59.8967 111.93 60.0733 111.93 60.24V63H110.89ZM125.328 63V57.75H126.358V63H125.328ZM125.828 56.49C125.608 56.49 125.438 56.4333 125.318 56.32C125.198 56.2067 125.138 56.0467 125.138 55.84C125.138 55.6467 125.198 55.49 125.318 55.37C125.444 55.25 125.614 55.19 125.828 55.19C126.048 55.19 126.218 55.2467 126.338 55.36C126.458 55.4733 126.518 55.6333 126.518 55.84C126.518 56.0333 126.454 56.19 126.328 56.31C126.208 56.43 126.041 56.49 125.828 56.49ZM129.519 63V62.14L133.559 58.52L133.729 58.61H129.519V57.75H134.749V58.59L130.739 62.16L130.539 62.14H134.809V63H129.519ZM140.476 63.1C139.783 63.1 139.166 62.9867 138.626 62.76C138.086 62.5267 137.663 62.21 137.356 61.81C137.056 61.4033 136.906 60.9433 136.906 60.43C136.906 59.99 136.996 59.6 137.176 59.26C137.363 58.9133 137.616 58.62 137.936 58.38C138.263 58.14 138.636 57.9567 139.056 57.83C139.476 57.6967 139.919 57.63 140.386 57.63C140.826 57.63 141.239 57.6933 141.626 57.82C142.013 57.94 142.353 58.1133 142.646 58.34C142.939 58.5667 143.166 58.8367 143.326 59.15C143.493 59.4567 143.573 59.8 143.566 60.18L143.556 60.72H137.866L137.636 59.9H142.666L142.516 59.97V59.73C142.483 59.5033 142.359 59.3033 142.146 59.13C141.939 58.9567 141.679 58.8233 141.366 58.73C141.059 58.63 140.733 58.58 140.386 58.58C139.933 58.58 139.519 58.6367 139.146 58.75C138.773 58.8633 138.476 59.05 138.256 59.31C138.036 59.57 137.926 59.92 137.926 60.36C137.926 60.72 138.043 61.0333 138.276 61.3C138.509 61.5667 138.833 61.7733 139.246 61.92C139.659 62.0667 140.136 62.14 140.676 62.14C141.216 62.14 141.663 62.07 142.016 61.93C142.369 61.79 142.656 61.6567 142.876 61.53L143.326 62.31C143.126 62.4433 142.873 62.5733 142.566 62.7C142.266 62.82 141.936 62.9167 141.576 62.99C141.216 63.0633 140.849 63.1 140.476 63.1ZM154.046 63.1C153.433 63.1 152.87 63.0233 152.356 62.87C151.843 62.7167 151.413 62.4567 151.066 62.09L151.766 61.44C152.033 61.6867 152.35 61.8833 152.716 62.03C153.083 62.17 153.486 62.24 153.926 62.24C154.1 62.24 154.28 62.2333 154.466 62.22C154.66 62.2 154.843 62.1667 155.016 62.12C155.19 62.0733 155.33 62.0067 155.436 61.92C155.543 61.8333 155.596 61.72 155.596 61.58C155.596 61.3533 155.406 61.19 155.026 61.09C154.833 61.0367 154.626 60.99 154.406 60.95C154.186 60.9033 153.953 60.8633 153.706 60.83C153.3 60.7567 152.923 60.68 152.576 60.6C152.236 60.5133 151.95 60.39 151.716 60.23C151.55 60.11 151.42 59.9633 151.326 59.79C151.233 59.6167 151.186 59.4067 151.186 59.16C151.186 58.9267 151.253 58.7167 151.386 58.53C151.526 58.3433 151.716 58.1833 151.956 58.05C152.196 57.9167 152.476 57.8167 152.796 57.75C153.123 57.6767 153.476 57.64 153.856 57.64C154.163 57.64 154.486 57.67 154.826 57.73C155.173 57.7833 155.503 57.8733 155.816 58C156.13 58.12 156.393 58.28 156.606 58.48L156.066 59.19C155.88 59.0567 155.66 58.9367 155.406 58.83C155.153 58.7233 154.893 58.64 154.626 58.58C154.36 58.52 154.103 58.49 153.856 58.49C153.69 58.49 153.51 58.5 153.316 58.52C153.13 58.5333 152.953 58.5633 152.786 58.61C152.62 58.6567 152.483 58.7233 152.376 58.81C152.27 58.89 152.216 58.9933 152.216 59.12C152.216 59.2 152.24 59.2733 152.286 59.34C152.34 59.4 152.41 59.4567 152.496 59.51C152.663 59.61 152.88 59.6933 153.146 59.76C153.42 59.82 153.716 59.8767 154.036 59.93C154.403 59.9833 154.763 60.0533 155.116 60.14C155.47 60.22 155.773 60.3333 156.026 60.48C156.213 60.5867 156.36 60.7133 156.466 60.86C156.58 61.0067 156.636 61.1833 156.636 61.39C156.636 61.7633 156.52 62.0767 156.286 62.33C156.053 62.5833 155.74 62.7767 155.346 62.91C154.96 63.0367 154.526 63.1 154.046 63.1ZM162.605 63.1C161.912 63.1 161.295 62.9867 160.755 62.76C160.215 62.5267 159.792 62.21 159.485 61.81C159.185 61.4033 159.035 60.9433 159.035 60.43C159.035 59.99 159.125 59.6 159.305 59.26C159.492 58.9133 159.745 58.62 160.065 58.38C160.392 58.14 160.765 57.9567 161.185 57.83C161.605 57.6967 162.048 57.63 162.515 57.63C162.955 57.63 163.368 57.6933 163.755 57.82C164.142 57.94 164.482 58.1133 164.775 58.34C165.068 58.5667 165.295 58.8367 165.455 59.15C165.622 59.4567 165.702 59.8 165.695 60.18L165.685 60.72H159.995L159.765 59.9H164.795L164.645 59.97V59.73C164.612 59.5033 164.488 59.3033 164.275 59.13C164.068 58.9567 163.808 58.8233 163.495 58.73C163.188 58.63 162.862 58.58 162.515 58.58C162.062 58.58 161.648 58.6367 161.275 58.75C160.902 58.8633 160.605 59.05 160.385 59.31C160.165 59.57 160.055 59.92 160.055 60.36C160.055 60.72 160.172 61.0333 160.405 61.3C160.638 61.5667 160.962 61.7733 161.375 61.92C161.788 62.0667 162.265 62.14 162.805 62.14C163.345 62.14 163.792 62.07 164.145 61.93C164.498 61.79 164.785 61.6567 165.005 61.53L165.455 62.31C165.255 62.4433 165.002 62.5733 164.695 62.7C164.395 62.82 164.065 62.9167 163.705 62.99C163.345 63.0633 162.978 63.1 162.605 63.1ZM171.482 63.1C171.022 63.1 170.615 62.9933 170.262 62.78C169.908 62.56 169.632 62.2467 169.432 61.84C169.238 61.4333 169.142 60.95 169.142 60.39V57.75H170.172V60.01C170.172 60.4633 170.232 60.8433 170.352 61.15C170.472 61.4567 170.658 61.6867 170.912 61.84C171.172 61.9933 171.502 62.07 171.902 62.07C172.175 62.07 172.432 62.03 172.672 61.95C172.918 61.8633 173.135 61.74 173.322 61.58C173.508 61.4133 173.655 61.2167 173.762 60.99C173.868 60.7567 173.922 60.4967 173.922 60.21V57.75H174.952V63H173.922V61.9L174.102 61.78C174.015 61.98 173.855 62.1833 173.622 62.39C173.388 62.59 173.092 62.76 172.732 62.9C172.372 63.0333 171.955 63.1 171.482 63.1ZM184.01 63V57.75H185.04V59.23L184.66 59.25C184.813 58.9967 185.01 58.7467 185.25 58.5C185.496 58.2533 185.786 58.05 186.12 57.89C186.46 57.7233 186.84 57.64 187.26 57.64C187.813 57.64 188.273 57.7433 188.64 57.95C189.013 58.15 189.293 58.4233 189.48 58.77C189.666 59.11 189.76 59.4867 189.76 59.9V63H188.73V60.07C188.73 59.7767 188.65 59.52 188.49 59.3C188.336 59.08 188.13 58.91 187.87 58.79C187.616 58.6633 187.333 58.6 187.02 58.6C186.733 58.6 186.466 58.6533 186.22 58.76C185.98 58.86 185.77 58.9933 185.59 59.16C185.416 59.32 185.28 59.4933 185.18 59.68C185.086 59.8667 185.04 60.0467 185.04 60.22V63H184.53C184.356 63 184.226 63 184.14 63C184.053 63 184.01 63 184.01 63ZM196.726 63.1C196.033 63.1 195.416 62.9867 194.876 62.76C194.336 62.5267 193.913 62.21 193.606 61.81C193.306 61.4033 193.156 60.9433 193.156 60.43C193.156 59.99 193.246 59.6 193.426 59.26C193.613 58.9133 193.866 58.62 194.186 58.38C194.513 58.14 194.886 57.9567 195.306 57.83C195.726 57.6967 196.169 57.63 196.636 57.63C197.076 57.63 197.489 57.6933 197.876 57.82C198.263 57.94 198.603 58.1133 198.896 58.34C199.189 58.5667 199.416 58.8367 199.576 59.15C199.743 59.4567 199.823 59.8 199.816 60.18L199.806 60.72H194.116L193.886 59.9H198.916L198.766 59.97V59.73C198.733 59.5033 198.609 59.3033 198.396 59.13C198.189 58.9567 197.929 58.8233 197.616 58.73C197.309 58.63 196.983 58.58 196.636 58.58C196.183 58.58 195.769 58.6367 195.396 58.75C195.023 58.8633 194.726 59.05 194.506 59.31C194.286 59.57 194.176 59.92 194.176 60.36C194.176 60.72 194.293 61.0333 194.526 61.3C194.759 61.5667 195.083 61.7733 195.496 61.92C195.909 62.0667 196.386 62.14 196.926 62.14C197.466 62.14 197.913 62.07 198.266 61.93C198.619 61.79 198.906 61.6567 199.126 61.53L199.576 62.31C199.376 62.4433 199.123 62.5733 198.816 62.7C198.516 62.82 198.186 62.9167 197.826 62.99C197.466 63.0633 197.099 63.1 196.726 63.1ZM206.204 65.3C205.597 65.3 205.077 65.2367 204.644 65.11C204.217 64.9833 203.874 64.8367 203.614 64.67L203.974 63.81C204.121 63.8767 204.301 63.9533 204.514 64.04C204.727 64.1333 204.974 64.2133 205.254 64.28C205.541 64.3467 205.857 64.38 206.204 64.38C206.591 64.38 206.934 64.3033 207.234 64.15C207.534 63.9967 207.767 63.77 207.934 63.47C208.107 63.1767 208.194 62.82 208.194 62.4V61.79L208.304 61.86C208.264 62.0467 208.111 62.2367 207.844 62.43C207.577 62.6233 207.244 62.7833 206.844 62.91C206.444 63.0367 206.014 63.1 205.554 63.1C204.954 63.1 204.424 62.9833 203.964 62.75C203.511 62.5167 203.154 62.1933 202.894 61.78C202.641 61.3667 202.514 60.8967 202.514 60.37C202.514 59.8367 202.651 59.3667 202.924 58.96C203.197 58.5467 203.574 58.2233 204.054 57.99C204.541 57.7567 205.097 57.64 205.724 57.64C205.877 57.64 206.067 57.66 206.294 57.7C206.521 57.74 206.754 57.8 206.994 57.88C207.241 57.9533 207.471 58.0433 207.684 58.15C207.904 58.25 208.081 58.3633 208.214 58.49C208.347 58.6167 208.414 58.7533 208.414 58.9L208.194 58.98V57.75H209.224V62.28C209.224 62.7933 209.137 63.24 208.964 63.62C208.797 64 208.571 64.3133 208.284 64.56C207.997 64.8067 207.674 64.99 207.314 65.11C206.954 65.2367 206.584 65.3 206.204 65.3ZM205.964 62.15C206.417 62.15 206.814 62.0733 207.154 61.92C207.494 61.7667 207.757 61.5567 207.944 61.29C208.137 61.0167 208.234 60.71 208.234 60.37C208.234 60.0233 208.137 59.7167 207.944 59.45C207.757 59.1833 207.494 58.9733 207.154 58.82C206.814 58.66 206.417 58.58 205.964 58.58C205.504 58.58 205.091 58.66 204.724 58.82C204.364 58.9733 204.081 59.1867 203.874 59.46C203.667 59.7267 203.564 60.03 203.564 60.37C203.564 60.7033 203.667 61.0067 203.874 61.28C204.081 61.5467 204.364 61.76 204.724 61.92C205.091 62.0733 205.504 62.15 205.964 62.15ZM216.004 63.1C215.324 63.1 214.72 62.9833 214.194 62.75C213.674 62.5167 213.264 62.1933 212.964 61.78C212.67 61.3667 212.524 60.8967 212.524 60.37C212.524 59.8367 212.67 59.3667 212.964 58.96C213.264 58.5467 213.674 58.2233 214.194 57.99C214.72 57.7567 215.324 57.64 216.004 57.64C216.684 57.64 217.284 57.7567 217.804 57.99C218.324 58.2233 218.73 58.5467 219.024 58.96C219.324 59.3667 219.474 59.8367 219.474 60.37C219.474 60.8967 219.324 61.3667 219.024 61.78C218.73 62.1933 218.324 62.5167 217.804 62.75C217.284 62.9833 216.684 63.1 216.004 63.1ZM216.004 62.16C216.457 62.16 216.867 62.0833 217.234 61.93C217.607 61.7767 217.9 61.5667 218.114 61.3C218.334 61.0267 218.437 60.7167 218.424 60.37C218.437 60.0167 218.334 59.7067 218.114 59.44C217.9 59.1733 217.607 58.9633 217.234 58.81C216.867 58.6567 216.457 58.58 216.004 58.58C215.55 58.58 215.137 58.6567 214.764 58.81C214.397 58.9633 214.104 59.1733 213.884 59.44C213.67 59.7067 213.567 60.0167 213.574 60.37C213.567 60.7167 213.67 61.0267 213.884 61.3C214.104 61.5667 214.397 61.7767 214.764 61.93C215.137 62.0833 215.55 62.16 216.004 62.16ZM225.324 63.1C224.711 63.1 224.158 62.98 223.664 62.74C223.178 62.5 222.791 62.1733 222.504 61.76C222.218 61.3467 222.074 60.8833 222.074 60.37C222.074 59.85 222.218 59.3867 222.504 58.98C222.791 58.5667 223.178 58.24 223.664 58C224.158 57.76 224.711 57.64 225.324 57.64C225.938 57.64 226.508 57.73 227.034 57.91C227.561 58.09 227.974 58.34 228.274 58.66L227.694 59.5C227.514 59.3267 227.291 59.17 227.024 59.03C226.764 58.89 226.488 58.78 226.194 58.7C225.901 58.6133 225.611 58.57 225.324 58.57C224.898 58.57 224.521 58.65 224.194 58.81C223.868 58.9633 223.611 59.1767 223.424 59.45C223.244 59.7167 223.154 60.0233 223.154 60.37C223.154 60.7167 223.251 61.0267 223.444 61.3C223.644 61.5667 223.908 61.78 224.234 61.94C224.568 62.0933 224.934 62.17 225.334 62.17C225.694 62.17 226.018 62.1333 226.304 62.06C226.598 61.98 226.858 61.8833 227.084 61.77C227.318 61.6567 227.528 61.5467 227.714 61.44L228.274 62.24C227.901 62.4667 227.471 62.6667 226.984 62.84C226.504 63.0133 225.951 63.1 225.324 63.1ZM224.324 65.44L224.254 64.96C224.454 64.9533 224.644 64.9333 224.824 64.9C225.011 64.8667 225.164 64.8133 225.284 64.74C225.404 64.6667 225.464 64.57 225.464 64.45C225.464 64.35 225.404 64.2667 225.284 64.2C225.171 64.1333 225.034 64.0833 224.874 64.05C224.721 64.0167 224.588 64 224.474 64L224.374 63.8L225.064 62.76H225.654L225.224 63.46C225.484 63.52 225.714 63.62 225.914 63.76C226.121 63.9 226.224 64.11 226.224 64.39C226.224 64.57 226.164 64.7267 226.044 64.86C225.924 65 225.768 65.1133 225.574 65.2C225.388 65.2867 225.184 65.35 224.964 65.39C224.744 65.43 224.531 65.4467 224.324 65.44ZM231.763 63V57.75H232.793V63H231.763ZM232.263 56.49C232.043 56.49 231.873 56.4333 231.753 56.32C231.633 56.2067 231.573 56.0467 231.573 55.84C231.573 55.6467 231.633 55.49 231.753 55.37C231.88 55.25 232.05 55.19 232.263 55.19C232.483 55.19 232.653 55.2467 232.773 55.36C232.893 55.4733 232.953 55.6333 232.953 55.84C232.953 56.0333 232.89 56.19 232.763 56.31C232.643 56.43 232.477 56.49 232.263 56.49ZM239.734 63.1C239.054 63.1 238.451 62.9833 237.924 62.75C237.404 62.5167 236.994 62.1933 236.694 61.78C236.401 61.3667 236.254 60.8967 236.254 60.37C236.254 59.8367 236.401 59.3667 236.694 58.96C236.994 58.5467 237.404 58.2233 237.924 57.99C238.451 57.7567 239.054 57.64 239.734 57.64C240.414 57.64 241.014 57.7567 241.534 57.99C242.054 58.2233 242.461 58.5467 242.754 58.96C243.054 59.3667 243.204 59.8367 243.204 60.37C243.204 60.8967 243.054 61.3667 242.754 61.78C242.461 62.1933 242.054 62.5167 241.534 62.75C241.014 62.9833 240.414 63.1 239.734 63.1ZM239.734 62.16C240.187 62.16 240.597 62.0833 240.964 61.93C241.337 61.7767 241.631 61.5667 241.844 61.3C242.064 61.0267 242.167 60.7167 242.154 60.37C242.167 60.0167 242.064 59.7067 241.844 59.44C241.631 59.1733 241.337 58.9633 240.964 58.81C240.597 58.6567 240.187 58.58 239.734 58.58C239.281 58.58 238.867 58.6567 238.494 58.81C238.127 58.9633 237.834 59.1733 237.614 59.44C237.401 59.7067 237.297 60.0167 237.304 60.37C237.297 60.7167 237.401 61.0267 237.614 61.3C237.834 61.5667 238.127 61.7767 238.494 61.93C238.867 62.0833 239.281 62.16 239.734 62.16ZM98.9187 76.1C98.3053 76.1 97.752 75.98 97.2587 75.74C96.772 75.5 96.3853 75.1733 96.0987 74.76C95.812 74.3467 95.6687 73.8833 95.6687 73.37C95.6687 72.85 95.812 72.3867 96.0987 71.98C96.3853 71.5667 96.772 71.24 97.2587 71C97.752 70.76 98.3053 70.64 98.9187 70.64C99.532 70.64 100.102 70.73 100.629 70.91C101.155 71.09 101.569 71.34 101.869 71.66L101.289 72.5C101.109 72.3267 100.885 72.17 100.619 72.03C100.359 71.89 100.082 71.78 99.7887 71.7C99.4953 71.6133 99.2053 71.57 98.9187 71.57C98.492 71.57 98.1153 71.65 97.7887 71.81C97.462 71.9633 97.2053 72.1767 97.0187 72.45C96.8387 72.7167 96.7487 73.0233 96.7487 73.37C96.7487 73.7167 96.8453 74.0267 97.0387 74.3C97.2387 74.5667 97.502 74.78 97.8287 74.94C98.162 75.0933 98.5287 75.17 98.9287 75.17C99.2887 75.17 99.612 75.1333 99.8987 75.06C100.192 74.98 100.452 74.8833 100.679 74.77C100.912 74.6567 101.122 74.5467 101.309 74.44L101.869 75.24C101.495 75.4667 101.065 75.6667 100.579 75.84C100.099 76.0133 99.5453 76.1 98.9187 76.1ZM107.947 76.1C107.267 76.1 106.664 75.9833 106.137 75.75C105.617 75.5167 105.207 75.1933 104.907 74.78C104.614 74.3667 104.467 73.8967 104.467 73.37C104.467 72.8367 104.614 72.3667 104.907 71.96C105.207 71.5467 105.617 71.2233 106.137 70.99C106.664 70.7567 107.267 70.64 107.947 70.64C108.627 70.64 109.227 70.7567 109.747 70.99C110.267 71.2233 110.674 71.5467 110.967 71.96C111.267 72.3667 111.417 72.8367 111.417 73.37C111.417 73.8967 111.267 74.3667 110.967 74.78C110.674 75.1933 110.267 75.5167 109.747 75.75C109.227 75.9833 108.627 76.1 107.947 76.1ZM107.947 75.16C108.401 75.16 108.811 75.0833 109.177 74.93C109.551 74.7767 109.844 74.5667 110.057 74.3C110.277 74.0267 110.381 73.7167 110.367 73.37C110.381 73.0167 110.277 72.7067 110.057 72.44C109.844 72.1733 109.551 71.9633 109.177 71.81C108.811 71.6567 108.401 71.58 107.947 71.58C107.494 71.58 107.081 71.6567 106.707 71.81C106.341 71.9633 106.047 72.1733 105.827 72.44C105.614 72.7067 105.511 73.0167 105.517 73.37C105.511 73.7167 105.614 74.0267 105.827 74.3C106.047 74.5667 106.341 74.7767 106.707 74.93C107.081 75.0833 107.494 75.16 107.947 75.16ZM114.718 76V70.75H115.758V72.27L115.368 72.19C115.428 72.0433 115.535 71.8833 115.688 71.71C115.842 71.53 116.038 71.3633 116.278 71.21C116.525 71.05 116.808 70.92 117.128 70.82C117.448 70.7133 117.802 70.66 118.188 70.66C118.555 70.66 118.892 70.72 119.198 70.84C119.505 70.96 119.755 71.1433 119.948 71.39C120.142 71.63 120.252 71.9367 120.278 72.31L119.918 72.23L119.988 72.06C120.075 71.94 120.202 71.8 120.368 71.64C120.535 71.48 120.735 71.3267 120.968 71.18C121.208 71.0333 121.472 70.91 121.758 70.81C122.052 70.71 122.362 70.66 122.688 70.66C123.268 70.66 123.722 70.7633 124.048 70.97C124.382 71.1767 124.618 71.4533 124.758 71.8C124.898 72.1467 124.968 72.53 124.968 72.95V76H123.928V73.11C123.928 72.8167 123.882 72.5567 123.788 72.33C123.695 72.1033 123.545 71.9267 123.338 71.8C123.132 71.6733 122.862 71.61 122.528 71.61C122.222 71.61 121.935 71.66 121.668 71.76C121.408 71.8533 121.178 71.9867 120.978 72.16C120.778 72.3267 120.622 72.5233 120.508 72.75C120.402 72.97 120.348 73.2067 120.348 73.46V76H119.308V73.09C119.308 72.7967 119.252 72.54 119.138 72.32C119.032 72.1 118.858 71.9267 118.618 71.8C118.378 71.6733 118.065 71.61 117.678 71.61C117.398 71.61 117.142 71.6633 116.908 71.77C116.675 71.87 116.472 72.0033 116.298 72.17C116.125 72.3367 115.992 72.5167 115.898 72.71C115.805 72.8967 115.758 73.0733 115.758 73.24V76H114.718ZM133.458 76V69.7H137.139C137.511 69.7 137.85 69.787 138.156 69.961C138.468 70.129 138.717 70.36 138.903 70.654C139.089 70.948 139.182 71.275 139.182 71.635C139.182 72.013 139.08 72.358 138.876 72.67C138.672 72.976 138.402 73.222 138.066 73.408C137.73 73.588 137.361 73.678 136.959 73.678H134.43V76H133.458ZM138.336 76L136.194 73.156L137.229 72.931L139.551 76.009L138.336 76ZM134.43 72.742H136.869C137.097 72.742 137.307 72.691 137.499 72.589C137.697 72.487 137.853 72.352 137.967 72.184C138.087 72.016 138.147 71.833 138.147 71.635C138.147 71.449 138.087 71.281 137.967 71.131C137.853 70.981 137.697 70.861 137.499 70.771C137.307 70.681 137.097 70.636 136.869 70.636H134.43V72.742ZM144.392 76V73.183L144.572 73.876L141.188 69.7H142.538L144.995 72.877H144.788L147.182 69.7H148.388L145.319 73.633L145.364 73.111V76H144.392ZM150.746 76V69.7H154.427C154.799 69.7 155.138 69.787 155.444 69.961C155.756 70.129 156.005 70.36 156.191 70.654C156.377 70.948 156.47 71.275 156.47 71.635C156.47 72.013 156.368 72.358 156.164 72.67C155.96 72.976 155.69 73.222 155.354 73.408C155.018 73.588 154.649 73.678 154.247 73.678H151.718V76H150.746ZM155.624 76L153.482 73.156L154.517 72.931L156.839 76.009L155.624 76ZM151.718 72.742H154.157C154.385 72.742 154.595 72.691 154.787 72.589C154.985 72.487 155.141 72.352 155.255 72.184C155.375 72.016 155.435 71.833 155.435 71.635C155.435 71.449 155.375 71.281 155.255 71.131C155.141 70.981 154.985 70.861 154.787 70.771C154.595 70.681 154.385 70.636 154.157 70.636H151.718V72.742ZM163.076 76.09C162.518 76.09 162.008 76.009 161.546 75.847C161.084 75.679 160.682 75.448 160.34 75.154C159.998 74.854 159.734 74.509 159.548 74.119C159.362 73.723 159.269 73.3 159.269 72.85C159.269 72.4 159.362 71.98 159.548 71.59C159.734 71.194 159.998 70.849 160.34 70.555C160.682 70.255 161.084 70.024 161.546 69.862C162.008 69.694 162.518 69.61 163.076 69.61C163.628 69.61 164.135 69.694 164.597 69.862C165.059 70.024 165.461 70.255 165.803 70.555C166.145 70.849 166.409 71.194 166.595 71.59C166.787 71.98 166.883 72.4 166.883 72.85C166.883 73.3 166.787 73.723 166.595 74.119C166.409 74.509 166.145 74.854 165.803 75.154C165.461 75.448 165.059 75.679 164.597 75.847C164.135 76.009 163.628 76.09 163.076 76.09ZM163.076 75.145C163.49 75.145 163.868 75.088 164.21 74.974C164.552 74.854 164.849 74.692 165.101 74.488C165.353 74.278 165.548 74.035 165.686 73.759C165.824 73.477 165.893 73.174 165.893 72.85C165.893 72.526 165.824 72.226 165.686 71.95C165.548 71.668 165.353 71.425 165.101 71.221C164.849 71.011 164.552 70.849 164.21 70.735C163.868 70.615 163.49 70.555 163.076 70.555C162.662 70.555 162.281 70.615 161.933 70.735C161.591 70.849 161.294 71.011 161.042 71.221C160.79 71.425 160.595 71.668 160.457 71.95C160.325 72.226 160.259 72.526 160.259 72.85C160.259 73.174 160.325 73.477 160.457 73.759C160.595 74.035 160.79 74.278 161.042 74.488C161.294 74.692 161.591 74.854 161.933 74.974C162.281 75.088 162.662 75.145 163.076 75.145ZM172.333 76.09C171.883 76.09 171.466 76.045 171.082 75.955C170.704 75.865 170.356 75.73 170.038 75.55C169.726 75.37 169.441 75.142 169.183 74.866L169.795 74.056C170.185 74.458 170.581 74.752 170.983 74.938C171.391 75.124 171.844 75.217 172.342 75.217C172.654 75.217 172.954 75.181 173.242 75.109C173.53 75.031 173.767 74.917 173.953 74.767C174.139 74.611 174.232 74.416 174.232 74.182C174.232 74.032 174.181 73.909 174.079 73.813C173.977 73.717 173.842 73.639 173.674 73.579C173.512 73.519 173.335 73.471 173.143 73.435C172.951 73.399 172.765 73.372 172.585 73.354C172.411 73.336 172.264 73.321 172.144 73.309C171.742 73.255 171.376 73.183 171.046 73.093C170.722 72.997 170.443 72.877 170.209 72.733C169.981 72.589 169.804 72.412 169.678 72.202C169.558 71.992 169.498 71.749 169.498 71.473C169.498 71.179 169.567 70.918 169.705 70.69C169.849 70.456 170.047 70.261 170.299 70.105C170.557 69.943 170.854 69.82 171.19 69.736C171.532 69.652 171.901 69.61 172.297 69.61C172.717 69.61 173.101 69.652 173.449 69.736C173.797 69.82 174.106 69.946 174.376 70.114C174.652 70.276 174.88 70.477 175.06 70.717L174.412 71.428C174.244 71.224 174.049 71.053 173.827 70.915C173.605 70.771 173.362 70.663 173.098 70.591C172.84 70.519 172.564 70.483 172.27 70.483C171.946 70.483 171.655 70.519 171.397 70.591C171.139 70.663 170.935 70.765 170.785 70.897C170.635 71.023 170.56 71.179 170.56 71.365C170.56 71.527 170.605 71.665 170.695 71.779C170.791 71.893 170.923 71.989 171.091 72.067C171.259 72.139 171.46 72.199 171.694 72.247C171.934 72.295 172.198 72.337 172.486 72.373C172.846 72.415 173.194 72.469 173.53 72.535C173.866 72.601 174.166 72.694 174.43 72.814C174.694 72.928 174.904 73.084 175.06 73.282C175.216 73.48 175.294 73.738 175.294 74.056C175.294 74.464 175.171 74.821 174.925 75.127C174.679 75.433 174.334 75.67 173.89 75.838C173.452 76.006 172.933 76.09 172.333 76.09ZM180.234 76V73.183L180.414 73.876L177.03 69.7H178.38L180.837 72.877H180.63L183.024 69.7H184.23L181.161 73.633L181.206 73.111V76H180.234ZM189.023 76.09C188.573 76.09 188.156 76.045 187.772 75.955C187.394 75.865 187.046 75.73 186.728 75.55C186.416 75.37 186.131 75.142 185.873 74.866L186.485 74.056C186.875 74.458 187.271 74.752 187.673 74.938C188.081 75.124 188.534 75.217 189.032 75.217C189.344 75.217 189.644 75.181 189.932 75.109C190.22 75.031 190.457 74.917 190.643 74.767C190.829 74.611 190.922 74.416 190.922 74.182C190.922 74.032 190.871 73.909 190.769 73.813C190.667 73.717 190.532 73.639 190.364 73.579C190.202 73.519 190.025 73.471 189.833 73.435C189.641 73.399 189.455 73.372 189.275 73.354C189.101 73.336 188.954 73.321 188.834 73.309C188.432 73.255 188.066 73.183 187.736 73.093C187.412 72.997 187.133 72.877 186.899 72.733C186.671 72.589 186.494 72.412 186.368 72.202C186.248 71.992 186.188 71.749 186.188 71.473C186.188 71.179 186.257 70.918 186.395 70.69C186.539 70.456 186.737 70.261 186.989 70.105C187.247 69.943 187.544 69.82 187.88 69.736C188.222 69.652 188.591 69.61 188.987 69.61C189.407 69.61 189.791 69.652 190.139 69.736C190.487 69.82 190.796 69.946 191.066 70.114C191.342 70.276 191.57 70.477 191.75 70.717L191.102 71.428C190.934 71.224 190.739 71.053 190.517 70.915C190.295 70.771 190.052 70.663 189.788 70.591C189.53 70.519 189.254 70.483 188.96 70.483C188.636 70.483 188.345 70.519 188.087 70.591C187.829 70.663 187.625 70.765 187.475 70.897C187.325 71.023 187.25 71.179 187.25 71.365C187.25 71.527 187.295 71.665 187.385 71.779C187.481 71.893 187.613 71.989 187.781 72.067C187.949 72.139 188.15 72.199 188.384 72.247C188.624 72.295 188.888 72.337 189.176 72.373C189.536 72.415 189.884 72.469 190.22 72.535C190.556 72.601 190.856 72.694 191.12 72.814C191.384 72.928 191.594 73.084 191.75 73.282C191.906 73.48 191.984 73.738 191.984 74.056C191.984 74.464 191.861 74.821 191.615 75.127C191.369 75.433 191.024 75.67 190.58 75.838C190.142 76.006 189.623 76.09 189.023 76.09ZM196.426 76V70.636H194.032V69.7H199.846V70.636H197.398V76H196.426ZM202.382 76V69.7H207.611V70.636H203.354V75.064H207.611V76H202.382ZM202.913 73.237V72.301H207.116V73.237H202.913ZM210.687 76V69.7H211.641L214.512 73.255H214.17L217.041 69.7H217.995V76H217.023V73.327C217.023 72.829 217.035 72.361 217.059 71.923C217.083 71.485 217.131 71.038 217.203 70.582L217.302 70.951L214.638 74.191H214.044L211.38 70.951L211.479 70.582C211.551 71.038 211.599 71.485 211.623 71.923C211.647 72.361 211.659 72.829 211.659 73.327V76H210.687Z" fill="white"/>
</svg>
